<mxfile host="app.diagrams.net" modified="2023-11-03T12:28:02.740Z" agent="Mozilla/5.0 (Macintosh; Intel Mac OS X 10_15_7) AppleWebKit/537.36 (KHTML, like Gecko) Chrome/116.0.0.0 Safari/537.36" version="22.0.8" etag="ibKkQyhciPlkEnr4hnS6" type="github">
  <diagram name="Page-1" id="0kAGGul_0mjS7ntbw-ah">
    <mxGraphModel>
      <root>
        <mxCell id="0" />
        <mxCell id="1" parent="0" />
      </root>
    </mxGraphModel>
  </diagram>
</mxfile>
